<?xml version="1.0" encoding="UTF-8"?>
<svg id="Layer_2" data-name="Layer 2" xmlns="http://www.w3.org/2000/svg" viewBox="0 0 720.92 65.39">
  <defs>
    <style>
      .cls-1 {
        fill: #635bff;
      }

      .cls-2 {
        fill: #fff;
      }
    </style>
  </defs>
  <g id="Layer_1-2" data-name="Layer 1">
    <g>
      <g>
        <path class="cls-2" d="M34.64,35.32H7.99v18.65H0V17.42c0-1.66.6-3.1,1.8-4.29,1.2-1.2,2.63-1.8,4.29-1.8h28.55v7.99H7.99v7.99h26.65v7.99Z"/>
        <g>
          <polygon class="cls-1" points="312.3 11.33 312.3 34.21 288.26 11.33 312.3 11.33"/>
          <path class="cls-2" d="M275.05,11.37h-2.33c-1.53.07-2.85.66-3.96,1.78-1.03,1.03-1.62,2.24-1.76,3.63v37.19h7.99v-29.99l31.68,29.99h5.63v-7.13l-37.25-35.47Z"/>
        </g>
        <path class="cls-2" d="M81.33,50.09c0,.56-.1,1.07-.3,1.55-.2.48-.48.89-.83,1.23s-.77.62-1.25.82c-.48.2-.98.3-1.52.3h-17.43c-1.65,0-3.31-.18-5-.54-1.69-.36-3.32-.91-4.89-1.65-1.58-.74-3.06-1.69-4.45-2.84-1.39-1.15-2.6-2.51-3.64-4.09-1.04-1.58-1.86-3.38-2.45-5.41-.6-2.03-.89-4.3-.89-6.8V11.33h7.73v21.32c0,2.18.3,4.03.91,5.53.6,1.51,1.37,2.77,2.3,3.78.93,1.01,1.95,1.8,3.06,2.38,1.11.58,2.17,1,3.17,1.28,1,.28,1.88.45,2.65.52.76.07,1.26.1,1.5.1h13.59V11.33h7.73v38.75Z"/>
        <path class="cls-2" d="M126.89,50.26c0,.54-.1,1.04-.3,1.51-.2.46-.47.86-.81,1.2-.34.34-.74.6-1.2.8-.46.19-.96.29-1.48.29-.46,0-.93-.09-1.4-.26-.47-.17-.89-.45-1.26-.84l-27.53-28.75v29.78h-7.54V15.13c0-.77.22-1.47.65-2.1.44-.63.99-1.1,1.67-1.41.71-.29,1.45-.36,2.2-.22.75.15,1.4.5,1.94,1.06l27.53,28.72V11.36h7.54v38.9Z"/>
        <path class="cls-2" d="M173.55,36.14c0,2.6-.45,4.99-1.35,7.17-.9,2.18-2.15,4.06-3.73,5.64-1.59,1.58-3.47,2.81-5.65,3.7-2.18.89-4.55,1.34-7.11,1.34h-20.88c-.56,0-1.07-.1-1.55-.3-.48-.2-.89-.47-1.23-.82-.35-.35-.62-.76-.82-1.23-.2-.48-.3-.99-.3-1.55V15.23c0-.54.1-1.04.3-1.52.2-.48.47-.89.82-1.25.35-.36.76-.63,1.23-.83.48-.2.99-.3,1.55-.3h20.88c2.56,0,4.93.45,7.11,1.34,2.18.89,4.06,2.13,5.65,3.7,1.59,1.58,2.83,3.46,3.73,5.65.9,2.19,1.35,4.58,1.35,7.15v6.96ZM165.82,29.18c0-1.51-.24-2.88-.73-4.13-.49-1.25-1.18-2.32-2.07-3.2-.89-.88-1.96-1.57-3.2-2.05-1.24-.49-2.61-.73-4.12-.73h-17.04v27.18h17.04c1.51,0,2.88-.24,4.12-.73,1.24-.48,2.3-1.17,3.2-2.05.89-.88,1.58-1.94,2.07-3.18.48-1.24.73-2.62.73-4.15v-6.96Z"/>
        <path class="cls-2" d="M216.31,53.98h-27.9c-1.07,0-2.24-.19-3.51-.56-1.27-.38-2.44-1-3.52-1.86-1.08-.86-1.98-1.98-2.71-3.36-.72-1.38-1.08-3.07-1.08-5.07V15.23c0-.54.1-1.04.3-1.52.2-.48.47-.89.82-1.25s.76-.63,1.23-.83c.48-.2.99-.3,1.55-.3h34.83v7.73h-30.99v24.06c0,1.01.27,1.78.8,2.32.54.54,1.32.8,2.35.8h27.84v7.73ZM212.83,36.55h-24.42v-7.79h24.42v7.79Z"/>
        <path class="cls-2" d="M262.97,36.14c0,2.6-.45,4.99-1.35,7.17-.9,2.18-2.15,4.06-3.73,5.64-1.59,1.58-3.47,2.81-5.65,3.7-2.18.89-4.55,1.34-7.11,1.34h-20.88c-.56,0-1.07-.1-1.55-.3-.48-.2-.89-.47-1.23-.82-.35-.35-.62-.76-.82-1.23-.2-.48-.3-.99-.3-1.55V15.23c0-.54.1-1.04.3-1.52.2-.48.47-.89.82-1.25.35-.36.76-.63,1.23-.83.48-.2.99-.3,1.55-.3h20.88c2.56,0,4.93.45,7.11,1.34s4.06,2.13,5.65,3.7c1.59,1.58,2.83,3.46,3.73,5.65.9,2.19,1.35,4.58,1.35,7.15v6.96ZM255.24,29.18c0-1.51-.24-2.88-.73-4.13-.49-1.25-1.18-2.32-2.07-3.2-.89-.88-1.96-1.57-3.2-2.05-1.24-.49-2.61-.73-4.12-.73h-17.04v27.18h17.04c1.51,0,2.88-.24,4.12-.73,1.24-.48,2.3-1.17,3.2-2.05.89-.88,1.58-1.94,2.07-3.18.48-1.24.73-2.62.73-4.15v-6.96Z"/>
        <path class="cls-2" d="M355.07,53.98h-27.9c-1.07,0-2.24-.19-3.51-.56-1.27-.38-2.44-1-3.52-1.86-1.08-.86-1.98-1.98-2.71-3.36-.72-1.38-1.08-3.07-1.08-5.07V15.23c0-.54.1-1.04.3-1.52.2-.48.47-.89.82-1.25s.76-.63,1.23-.83c.48-.2.99-.3,1.55-.3h34.83v7.73h-30.99v24.06c0,1.01.27,1.78.8,2.32.54.54,1.32.8,2.35.8h27.84v7.73ZM351.59,36.55h-24.42v-7.79h24.42v7.79Z"/>
        <path class="cls-2" d="M380.58,26.56l13.03-15.23h10.56l-18.35,21.38,18.23,21.27h-10.5l-12.97-15.11-12.91,15.11h-10.53l18.2-21.27-18.26-21.38h10.47l13.03,15.23Z"/>
        <path class="cls-2" d="M448.03,19.07h-17.04v34.92h-7.73V19.07h-17.07v-7.73h41.85v7.73Z"/>
      </g>
      <g>
        <polygon class="cls-2" points="486.96 54.01 491.4 54.01 491.4 34.64 514.19 34.64 514.19 30.68 491.4 30.68 491.4 15.45 516.62 15.45 516.62 11.37 486.96 11.37 486.96 54.01"/>
        <path class="cls-2" d="M546,37.63c0,3.61-1.05,6.58-3.14,8.89-2.09,2.31-4.72,3.47-7.89,3.47-2.8,0-5.19-.96-7.16-2.89-1.97-1.93-2.96-4.56-2.96-7.89v-18.03h-4.26v19.37c0,4.1,1.35,7.37,4.05,9.81,2.7,2.44,5.92,3.65,9.66,3.65,2.68,0,5.03-.64,7.04-1.92,2.01-1.28,3.56-2.91,4.66-4.9v6.82h4.27V21.18h-4.27v16.45Z"/>
        <path class="cls-2" d="M566.66,11.92h-4.27v9.2h-7v3.72h7v18.7c0,4.35,1.3,7.35,3.9,9.02,2.6,1.66,6.29,1.91,11.09.73v-4.14c-7.19,2.07-10.78.18-10.78-5.67l.06-18.64h10.78v-3.72h-10.78v-9.2Z"/>
        <path class="cls-2" d="M607.96,37.63c0,3.61-1.05,6.58-3.14,8.89-2.09,2.31-4.72,3.47-7.89,3.47-2.8,0-5.19-.96-7.16-2.89-1.97-1.93-2.96-4.56-2.96-7.89v-18.03h-4.26v19.37c0,4.1,1.35,7.37,4.05,9.81,2.7,2.44,5.92,3.65,9.66,3.65,2.68,0,5.03-.64,7.04-1.92s3.56-2.91,4.66-4.9v6.82h4.27V21.18h-4.27v16.45Z"/>
        <path class="cls-2" d="M627.84,22.76c-2.38,1.26-4.07,3.19-5.09,5.79v-7.37h-4.26v32.84h4.26v-16.2c0-4.35,1.31-7.6,3.93-9.78,2.62-2.17,5.86-2.81,9.72-1.92v-4.51c-3.33-.49-6.18-.1-8.56,1.16Z"/>
        <path class="cls-2" d="M664.81,24.9c-3.05-2.8-6.66-4.2-10.84-4.2-4.59,0-8.5,1.61-11.73,4.84s-4.84,7.16-4.84,11.79,1.6,8.52,4.81,11.79c3.21,3.27,7.13,4.9,11.76,4.9,3.17,0,6.12-.81,8.86-2.44,2.74-1.62,4.76-3.78,6.06-6.46l-3.96-.79c-1.18,1.75-2.74,3.15-4.69,4.2-1.95,1.06-4.04,1.58-6.27,1.58-3.25,0-6.04-1.04-8.38-3.14-2.34-2.09-3.62-4.8-3.87-8.13h28.51c.16-.93.14-2.13-.06-3.59-.53-4.1-2.31-7.55-5.36-10.36ZM641.73,35.43c.32-3.09,1.62-5.68,3.9-7.77,2.27-2.09,5.04-3.14,8.29-3.14s5.94,1.05,8.19,3.14c2.25,2.09,3.54,4.68,3.87,7.77h-24.25Z"/>
        <path class="cls-2" d="M696.65,39c-1.75-1.52-4.73-2.71-8.96-3.56-3.9-.77-6.62-1.51-8.16-2.22-1.54-.71-2.31-1.82-2.31-3.32,0-1.66.85-3,2.56-3.99,1.71-1,3.7-1.49,5.97-1.49,4.18,0,8.37,1.5,12.55,4.51v-4.33c-3.98-2.6-8.16-3.9-12.55-3.9-3.37,0-6.33.82-8.86,2.47-2.54,1.65-3.81,3.89-3.81,6.73,0,2.4,1.01,4.27,3.05,5.63,2.03,1.36,5.2,2.47,9.5,3.32,3.45.69,5.91,1.52,7.37,2.5,1.46.97,2.19,2.13,2.19,3.47.04,1.5-.69,2.78-2.19,3.84-1.5,1.06-3.51,1.58-6.03,1.58-2.76,0-5.4-.59-7.92-1.77-2.52-1.18-4.53-2.6-6.03-4.26v4.87c4.35,3.29,9.02,4.93,14.01,4.93,3.57,0,6.52-.81,8.83-2.44,2.31-1.62,3.47-3.9,3.47-6.82-.04-2.31-.93-4.23-2.68-5.76Z"/>
        <path class="cls-2" d="M706.7,0h-229.1c-7.85,0-14.23,6.38-14.23,14.23v36.93c0,7.85,6.38,14.23,14.23,14.23h229.1c7.85,0,14.23-6.38,14.23-14.23V14.23c0-7.85-6.38-14.23-14.23-14.23ZM706.7,61.39h-229.1c-5.64,0-10.23-4.59-10.23-10.23V14.23c0-5.64,4.59-10.23,10.23-10.23h229.1c5.64,0,10.23,4.59,10.23,10.23v36.93c0,5.64-4.59,10.23-10.23,10.23Z"/>
      </g>
    </g>
  </g>
</svg>