<svg width="220" height="126" viewBox="0 0 220 126" fill="none" xmlns="http://www.w3.org/2000/svg">
<path d="M113.527 72.4912C119.17 72.4912 123.564 73.3885 126.761 75.1436C129.968 76.9039 132.406 79.4545 134.082 82.8066C135.756 86.1552 136.609 90.5388 136.609 96.002V97.3604H106.059L106.113 97.8555C106.376 100.298 106.988 102.219 107.99 103.567L108.197 103.829C109.749 105.739 111.797 106.698 114.295 106.698C115.87 106.698 117.368 106.282 118.782 105.458L118.79 105.454C119.634 104.941 120.505 104.082 121.412 102.913L135.472 104.28C133.281 108.106 130.678 110.843 127.686 112.529C124.548 114.298 119.99 115.197 113.964 115.197C108.745 115.197 104.689 114.424 101.767 112.906L101.766 112.905C98.841 111.395 96.398 108.985 94.4592 105.651H94.4583C92.5208 102.335 91.553 98.4298 91.553 93.9199C91.553 87.4945 93.5027 82.3409 97.384 78.4072C101.258 74.4811 106.611 72.4912 113.527 72.4912ZM114.134 81.0605C111.573 81.0606 109.509 82.1436 107.981 84.2666C106.995 85.6177 106.393 87.5749 106.139 90.0947L106.089 90.5869H121.384L122.141 91.3438L122.023 90.1064C121.724 86.9747 120.913 84.6465 119.524 83.1992L119.523 83.1982L119.258 82.9395C117.914 81.6837 116.201 81.0605 114.134 81.0605Z" fill="white" stroke="white" stroke-width="0.89362"/>
<path d="M198.635 72.4819C203.36 72.482 206.794 72.8667 208.974 73.6021C211.163 74.3403 212.984 75.4819 214.43 77.0229L214.431 77.0239C215.79 78.4632 216.944 80.3824 217.886 82.811L204.405 84.2056C204.002 82.9813 203.373 82.0243 202.48 81.3774H202.481L202.475 81.3735L202.231 81.2104C200.997 80.4199 199.54 80.0327 197.884 80.0327C196.158 80.0327 194.754 80.3582 193.848 81.0991C192.972 81.8164 192.504 82.715 192.504 83.7769C192.504 84.3629 192.65 84.8957 192.951 85.3608C193.25 85.8233 193.686 86.1947 194.234 86.4858L194.237 86.4878C194.788 86.7756 195.627 87.0334 196.719 87.271C197.82 87.5105 199.211 87.7359 200.884 87.9468H200.888C205.933 88.544 209.643 89.3785 212.048 90.4243C214.446 91.4667 216.259 92.9418 217.509 94.8521L217.51 94.853C218.767 96.7645 219.403 98.8687 219.403 101.158C219.403 103.445 218.741 105.734 217.394 107.95C216.066 110.135 213.963 111.887 211.05 113.208C208.156 114.52 204.171 115.188 199.073 115.188C191.846 115.188 186.8 114.095 183.844 112.007C180.996 109.995 179.12 107.166 178.215 103.5L192.457 102.092C193.049 103.742 193.849 105.01 194.894 105.851L195.121 106.024C196.337 106.909 197.941 107.324 199.868 107.324C201.969 107.324 203.662 106.857 204.886 105.853L204.887 105.854C205.863 105.097 206.365 104.121 206.365 102.954C206.365 101.612 205.68 100.59 204.417 99.8989L204.416 99.8979L204.225 99.8032C203.745 99.5802 203.013 99.3521 202.059 99.1128C200.956 98.8358 199.515 98.5345 197.742 98.2075H197.741C192.459 97.2423 188.836 96.3546 186.828 95.5425H186.827C184.858 94.7549 183.19 93.4177 181.833 91.5151L181.832 91.5142C180.485 89.6364 179.806 87.4855 179.806 85.064C179.806 82.4086 180.54 80.1374 181.994 78.23L181.993 78.229C183.454 76.321 185.473 74.8774 188.065 73.9292L188.066 73.9282C190.659 72.971 194.175 72.4819 198.635 72.4819Z" fill="white" stroke="white" stroke-width="0.89362"/>
<path d="M154.83 72.4473V78.2256L155.466 77.9268C159.547 76.0135 164.116 75.2611 168.539 75.874H168.54C170.086 76.0879 171.603 76.4749 172.916 77.2471L173.175 77.4072C175.058 78.6189 176.387 80.7623 176.639 83.0684L176.636 83.0723L176.654 83.2783C176.848 85.6604 175.829 88.1272 174.019 89.5283C172.947 90.3575 171.626 90.8247 170.274 90.9287L170.003 90.9453C167.805 91.0297 165.56 90.1311 164.148 88.4014C162.732 86.6665 162.245 84.0851 163.089 82.0068L163.373 81.3115L162.626 81.3945C158.959 81.8021 155.765 84.9106 155.061 88.6729L155.06 88.6748C154.93 89.382 154.875 90.1024 154.831 90.791L154.83 90.8047V115.197H140.443V72.4473H154.83Z" fill="white" stroke="white" stroke-width="0.89362"/>
<path d="M51.9666 113.782L95.5452 65.8681C94.2131 60.2331 91 55.3004 85.914 51.0782C79.6008 45.863 70.3006 43.2634 58.0456 43.2634L46.9128 43.2634L53.8557 24.2351L94.4311 24.2351L103.973 1.73538L33.0028 1.73538L33.0028 1.71924L13.579 56.9796L34.5771 56.9796C44.0549 56.9796 51.2803 58.9495 56.2857 62.9053C60.7017 66.3202 62.9137 70.7766 62.9137 76.242C62.9137 82.1919 60.8066 87.7139 56.6005 92.8242C52.1845 98.1444 46.8401 101.196 40.5754 101.995C41.4715 99.7348 41.9156 97.4743 41.9156 95.2058C41.9156 89.9905 39.865 85.5423 35.7638 81.8206C31.6627 78.1069 26.6816 76.2582 20.8367 76.2582C14.9918 76.2582 10.1883 78.1069 6.11941 81.8206C2.04249 85.5342 -1.08338e-08 89.9905 -1.14739e-08 95.2058C-1.20743e-08 100.098 1.81645 104.336 5.44127 107.913C9.08224 111.489 13.6274 113.645 19.0929 114.387C23.8802 115.13 28.6353 115.502 33.3904 115.502C40.0184 115.502 46.2024 114.928 51.9504 113.79L51.9666 113.782Z" fill="white"/>
<path d="M123.631 34.9727L142.151 14.6123C140.771 6.32124 133.561 -3.16158e-09 124.883 -2.11389e-09C115.211 -9.46331e-10 107.372 7.83898 107.372 17.5106C107.372 27.1821 114.541 34.3349 123.639 34.9727L123.631 34.9727Z" fill="white"/>
<path d="M42.5208 124.616L150.684 4.93213" stroke="white" stroke-width="2.37298" stroke-linecap="round" stroke-linejoin="round"/>
</svg>
